<svg fill="currentColor" xmlns="http://www.w3.org/2000/svg" width="639.65" height="264.39" viewBox="0 0 639.65 264.39"><path d="m82.13 248.52-10.21-.09v-5.08l16.1.05c.64 5.22-.42 10.75-4.72 14.51-7.56 6.61-19.75 5.76-26.01-2.2s-4.74-19.29 2.92-25.22c7.75-6 19.17-4.98 25.02 3.13l-4.28 3.65a11.7 11.7 0 0 0-13.32-4.72c-4.98 1.5-8.4 6.13-8.39 11.69 0 4.89 2.66 9.23 6.45 11.23a12.2 12.2 0 0 0 13.47-1.17c1.73-1.41 2.68-3.11 2.96-5.78Zm57.46.02-10.13-.13v-5.05l15.96.09c.46 5.36-.2 10.26-3.96 13.9-7.69 7.44-20.57 6.41-26.91-2.33-4-5.51-4.41-12.81-1.49-18.88 2.6-5.42 8.13-8.61 13.4-9.31 6.42-.86 12.36 1.41 16.35 6.45l-4.27 3.76c-3.23-4.7-8.94-6.12-14.07-4.23s-8.13 7.2-7.45 13c.49 4.2 3.01 7.77 6.05 9.49a12.1 12.1 0 0 0 12.22.02 8.3 8.3 0 0 0 4.31-6.78Z"/><path d="M241.75 246.8h-16.12l-.03 9.65 18.54.07-.11 5.29-23.99-.08v-34.65l23.85-.03.14 5.28-18.4.02v9.31h16.08c.31 1.63.33 2.99.04 5.12Z" style="fill:#020202"/><path d="m467.04 246.8-16.08-.01.02 9.64 18.5.01v5.3l-24.08.04.02-34.72 23.89.01.03 5.3-18.36.01.01 9.29 16.06-.02z"/><path d="M339.32 254.77c-1.93 7.48-12.15 9.26-19.92 5.82a12 12 0 0 1-5.55-4.82l4.42-3.45c2.81 4.4 8.38 5.79 13.14 3.75 1.75-.75 2.47-2.57 2.37-4.25a4.3 4.3 0 0 0-3.02-3.7l-9.15-3.22c-2.91-1.02-5.2-3.14-5.85-5.53-.87-3.22-.32-6.25 1.73-8.71 4.65-5.57 16.41-5.58 21.23 1.4l-4.16 3.48a8.97 8.97 0 0 0-11.62-2.53c-1.31.73-1.69 2.42-1.63 3.64s1.06 2.43 2.46 2.94l8 2.89c6.23 2.25 9.15 6.11 7.55 12.3Z"/><path d="M279.88 262.19c-5.66-.05-10.61-1.86-13.51-6.47l4.47-3.36c2.83 4.41 8.58 5.69 13.21 3.63 1.66-.74 2.33-2.65 2.24-4.13s-1.18-3.04-2.89-3.65l-9.5-3.4c-3.25-1.16-5.57-3.74-5.99-6.84-.43-3.26.62-6.69 3.5-8.68 6.16-4.25 15-3.48 19.76 2.54-1.08 1.47-2.39 2.44-3.98 3.76-2.45-3.49-6.61-4.48-10.56-3.14-1.78.6-2.84 2.05-2.81 3.73s1.19 3 2.97 3.65l9.45 3.45c5.26 1.92 7.31 7.52 5.01 12.79-1.85 4.22-6.46 6.17-11.39 6.12Zm355.7-2.22c-6.12 4.2-17.43 2.55-21.73-4.19l4.6-3.38c2.74 4.45 8.58 5.77 13.16 3.61 1.65-.78 2.3-2.69 2.22-4.15-.09-1.73-1.36-3.21-3.19-3.86l-9.15-3.25c-2.99-1.06-5.23-3.26-5.82-6.07-.63-2.99 0-6.49 2.52-8.7 5.91-5.16 15.5-4.4 20.41 1.88-.99 1.44-2.3 2.43-3.91 3.58a9.45 9.45 0 0 0-11.23-2.74c-1.59.72-2.19 2.46-2.05 3.91s1.31 2.6 2.95 3.19l8.68 3.13c3.65 1.32 6.13 4.05 6.52 7.41.44 3.87-.75 7.38-3.99 9.6ZM417.66 227.2l5.98-.03-14.23 34.53-5.29-.05-14.3-34.51 6.01.04 10.93 26.64z"/><path d="M347.79 241.68h34.83v5.51h-34.83z" style="fill:#030303" transform="rotate(-89.88 365.22 244.43)"/><path d="m579.23 227.23-15.04-.17v34.7h13.58c9.48 0 16.21-7.19 16.54-16.78.33-9.44-5.69-16.84-15.08-17.74Zm-2.01 29.18-7.42-.08v-23.95l8.88.1c6.06.07 9.54 5.08 9.9 11.07.44 7.27-4.04 12.94-11.37 12.86Zm-390.31-7.96c5.88-1.53 8.83-6.59 8.08-12.2a10.6 10.6 0 0 0-10.5-9.08l-15.1-.08-.03 34.53c1.79.34 3.6.25 5.63.04l.04-12.7 5.72.1 8.52 12.85 6.68-.12zm-11.88-4.68.03-11.45 9.8.21c2.81.06 4.33 2.79 4.4 5.24.07 2.4-1.11 5.64-4.11 5.72z"/><path d="M19.31 227.18a20 20 0 0 0-5.32-.05L0 261.63l5.72.13 3.2-7.69 15.58.06 2.95 7.53 5.97.08-14.1-34.57Zm-8.35 21.85 5.66-14.32 5.57 14.18zm517.7-22.01h-5.12l-14.08 34.64h5.69l3.26-7.67 15.57.19 2.93 7.61 5.82-.21-14.07-34.55Zm-8.26 22.02 5.69-14.3 5.47 14.24z"/><path d="M227.62 185.03h-46.4L294.68 0h47.23zm210.96 0h-41.65L318.27 51.29h39.4zm-83.84-33.47 20.54 33.47H248.92l50.39-83.73h34.61l-28.49 50.26z"/></svg>